<svg width="398" height="94" viewBox="0 0 398 94" fill="none" xmlns="http://www.w3.org/2000/svg">
<g clip-path="url(#clip0_2871_17065)">
<path d="M25.147 88.248C25.147 91.449 22.54 93.33 18.382 93.33C15.973 93.33 13.465 92.571 11.881 91.713L12.277 89.37C13.993 90.393 16.204 91.218 18.613 91.218C21.187 91.218 22.771 90.228 22.771 88.446C22.771 86.73 21.715 85.938 18.052 85.047C14.059 84.024 12.31 82.77 12.31 79.866C12.31 77.16 14.719 75.147 18.481 75.147C20.593 75.147 22.507 75.609 24.058 76.335L23.662 78.678C22.045 77.82 20.197 77.292 18.382 77.292C15.874 77.292 14.686 78.348 14.686 79.8C14.686 81.219 15.676 81.945 18.778 82.737C23.068 83.826 25.147 85.146 25.147 88.248ZM43.9934 90.888C42.2114 92.373 39.8684 93.363 37.0964 93.363C32.3444 93.363 28.9124 90.261 28.9124 84.222C28.9124 78.645 32.2124 75.147 36.7004 75.147C41.6174 75.147 44.0264 79.041 44.0264 83.892V84.42H31.4204C31.4864 88.743 33.5654 91.251 37.2614 91.251C39.6374 91.251 41.7824 90.195 43.6304 88.677L43.9934 90.888ZM36.6674 77.094C33.9614 77.094 31.9814 79.008 31.5194 82.506H41.5184C41.2874 79.338 39.6374 77.094 36.6674 77.094ZM62.2622 91.383C60.5792 92.67 58.5992 93.363 56.1242 93.363C51.4712 93.363 47.9072 90.063 47.9072 84.255C47.9072 78.381 51.6032 75.147 56.2562 75.147C58.6982 75.147 60.6782 75.906 62.0972 76.929L61.7012 79.371C59.9852 78.018 58.3022 77.292 56.2232 77.292C52.8572 77.292 50.4482 79.767 50.4482 84.255C50.4482 88.644 52.8902 91.218 56.3552 91.218C58.2692 91.218 60.0512 90.657 61.9322 89.139L62.2622 91.383ZM81.1813 93H79.3003L78.8713 90.426C76.8583 92.109 74.7793 93.363 72.3373 93.363C68.7073 93.363 66.8923 91.35 66.8923 88.017V75.51H69.3673V87.555C69.3673 89.799 70.4563 91.152 72.7993 91.152C74.7463 91.152 76.7263 90.03 78.7393 88.149V75.51H81.1813V93ZM96.5819 77.457C93.5789 77.622 91.0049 79.701 89.7839 82.044V93H87.3419V75.51H89.1239L89.7179 79.107C91.0709 77.127 93.1829 75.213 96.1859 75.147L96.5819 77.457ZM103.932 69.57C103.932 70.527 103.14 71.352 102.15 71.352C101.16 71.352 100.335 70.527 100.335 69.57C100.335 68.613 101.16 67.821 102.15 67.821C103.14 67.821 103.932 68.613 103.932 69.57ZM103.371 93H100.929V75.51H103.371V93ZM117.818 93C117.323 93.132 116.399 93.297 115.31 93.297C112.472 93.297 110.624 92.241 110.624 89.007V77.589H107.819V75.51H110.624V69.471L113.033 69.042V75.51H117.29L117.587 77.589H113.033V88.578C113.033 90.36 113.792 91.119 115.772 91.119C116.366 91.119 117.059 91.053 117.488 90.954L117.818 93ZM125.808 69.57C125.808 70.527 125.016 71.352 124.026 71.352C123.036 71.352 122.211 70.527 122.211 69.57C122.211 68.613 123.036 67.821 124.026 67.821C125.016 67.821 125.808 68.613 125.808 69.57ZM125.247 93H122.805V75.51H125.247V93ZM145.569 90.888C143.787 92.373 141.444 93.363 138.672 93.363C133.92 93.363 130.488 90.261 130.488 84.222C130.488 78.645 133.788 75.147 138.276 75.147C143.193 75.147 145.602 79.041 145.602 83.892V84.42H132.996C133.062 88.743 135.141 91.251 138.837 91.251C141.213 91.251 143.358 90.195 145.206 88.677L145.569 90.888ZM138.243 77.094C135.537 77.094 133.557 79.008 133.095 82.506H143.094C142.863 79.338 141.213 77.094 138.243 77.094ZM162.649 88.248C162.649 91.449 160.042 93.33 155.884 93.33C153.475 93.33 150.967 92.571 149.383 91.713L149.779 89.37C151.495 90.393 153.706 91.218 156.115 91.218C158.689 91.218 160.273 90.228 160.273 88.446C160.273 86.73 159.217 85.938 155.554 85.047C151.561 84.024 149.812 82.77 149.812 79.866C149.812 77.16 152.221 75.147 155.983 75.147C158.095 75.147 160.009 75.609 161.56 76.335L161.164 78.678C159.547 77.82 157.699 77.292 155.884 77.292C153.376 77.292 152.188 78.348 152.188 79.8C152.188 81.219 153.178 81.945 156.28 82.737C160.57 83.826 162.649 85.146 162.649 88.248Z" fill="#003466"/>
<path d="M165.542 42.2644H157.48V23.0867C157.531 21.2731 157.252 19.7752 156.637 18.587C156.028 17.4029 154.744 16.7861 152.801 16.7396C151.337 16.7695 149.947 17.0965 148.633 17.7179C147.322 18.3434 146.136 19.0823 145.076 19.9511C145.134 20.2619 145.155 20.6397 145.142 21.0845V42.2644H137.011V23.2215C137.064 21.4029 136.789 19.8841 136.179 18.6541C135.572 17.4281 134.314 16.7907 132.402 16.7396C130.934 16.7695 129.549 17.0965 128.233 17.7179C126.92 18.3434 125.734 19.0823 124.674 19.9511V42.2644H116.541V10.6624H123.388L124.199 14.1339C127.735 11.397 131.375 9.99044 135.11 9.9277C137.12 9.93999 138.833 10.3603 140.255 11.1952C141.677 12.0305 142.767 13.1844 143.516 14.6704C145.404 13.1008 147.339 11.9169 149.318 11.1238C151.302 10.3264 153.184 9.9277 154.972 9.9277C156.83 9.90678 158.555 10.2341 160.151 10.9057C161.747 11.582 163.037 12.7143 164.023 14.3102C165.008 15.905 165.513 18.0748 165.542 20.8203V42.2644Z" fill="#003366"/>
<path d="M198.904 22.9142C198.848 21.1388 198.321 19.5573 197.32 18.163C196.319 16.7786 194.796 16.0429 192.737 15.9722C190.753 16.0386 189.215 16.7653 188.112 18.142C187.01 19.5144 186.452 21.106 186.432 22.9142H198.904ZM207.308 28.5984H186.639C186.765 30.974 187.663 32.8839 189.34 34.327C191.015 35.7675 193.12 36.5098 195.651 36.5516C197.163 36.5516 198.58 36.3667 199.92 36.0022C201.262 35.6297 202.616 35.0793 203.987 34.3446L205.954 39.4903C204.132 40.7159 202.216 41.606 200.198 42.1554C198.188 42.7058 196.213 42.9747 194.297 42.9618C190.579 42.92 187.546 42.1222 185.196 40.5735C182.85 39.0202 181.12 37.0011 180.013 34.5076C178.906 32.0194 178.361 29.3331 178.37 26.4575C178.378 23.4142 178.961 20.6521 180.113 18.1719C181.269 15.6914 182.929 13.7098 185.095 12.2278C187.267 10.7505 189.881 9.99064 192.942 9.95312C197.337 10.0202 200.815 11.5104 203.379 14.4239C205.94 17.3367 207.256 21.2819 207.308 26.2603V28.5984Z" fill="#003366"/>
<path d="M103.701 26.9419C103.696 29.3594 103.314 31.6016 102.549 33.6525C101.783 35.7098 100.655 37.4819 99.1584 38.9675C96.2801 41.9228 92.4149 43.4326 87.5703 43.5087C83.0424 43.4668 79.3579 42.1538 76.5254 39.5677C74.9235 38.0854 73.701 36.2941 72.8533 34.1907C72.0079 32.0876 71.5805 29.7624 71.5762 27.2068C71.5849 24.7213 71.9911 22.4423 72.7937 20.3641C73.6 18.2949 74.7492 16.4985 76.2511 14.9794C79.1321 12.0829 82.9273 10.5926 87.6366 10.5C92.6191 10.5764 96.5507 12.0952 99.4283 15.0421C102.244 18.0724 103.666 22.0439 103.701 26.9419ZM95.3651 27.0043C95.3483 23.9239 94.6685 21.4686 93.313 19.647C91.9609 17.8254 90.0266 16.8926 87.502 16.8517C84.929 16.9059 83.0061 17.863 81.7424 19.7264C80.4738 21.5858 79.8418 24.0085 79.8418 27.0043C79.8647 30.1269 80.5522 32.6128 81.9168 34.4586C83.2857 36.3057 85.2137 37.2505 87.7066 37.3013C90.2477 37.2382 92.1618 36.2682 93.4385 34.3792C94.72 32.4949 95.3608 30.0353 95.3651 27.0043Z" fill="#003366"/>
<path d="M249.215 42.2736H241.084V23.6954C241.139 21.9751 240.871 20.4221 240.258 19.0281C239.653 17.6305 238.342 16.8958 236.332 16.8122C234.911 16.8328 233.511 17.1568 232.144 17.7822C230.773 18.4034 229.462 19.1961 228.201 20.1536V42.2736H220.07V10.6629H226.984L227.865 14.0717C229.573 12.7906 231.339 11.7797 233.161 11.0494C234.978 10.3147 236.963 9.94022 239.117 9.92827C240.777 9.91201 242.37 10.2642 243.902 10.9909C245.435 11.7123 246.694 12.9084 247.678 14.575C248.67 16.2369 249.176 18.4791 249.215 21.2866V42.2736Z" fill="#003366"/>
<path d="M281.865 39.558C280.161 40.7246 278.34 41.5844 276.403 42.1385C274.466 42.6932 272.695 42.9658 271.085 42.9615C268.267 42.9239 266.236 42.2188 264.989 40.863C263.742 39.4992 263.133 37.7275 263.158 35.549V3.40917L271.294 1V10.6875H281.251L278.884 16.7076H271.294V32.6104C271.256 35.0454 272.273 36.2495 274.337 36.2166C275.377 36.1955 276.373 36.0072 277.326 35.6503C278.276 35.2924 279.063 34.898 279.698 34.4794L281.865 39.558Z" fill="#003366"/>
<path d="M320.814 42.2985H314.105L312.683 39.154C311.559 40.1915 310.18 41.0768 308.528 41.8109C306.884 42.5455 304.99 42.9326 302.858 42.9615C301.402 43.0033 299.839 42.6926 298.175 42.0333C296.514 41.3789 295.084 40.1576 293.888 38.3735C292.692 36.5901 292.07 34.0173 292.01 30.6713V10.6875H300.142V30.2019C300.142 32.1954 300.61 33.7564 301.551 34.8861C302.491 36.0231 303.947 36.5988 305.905 36.6144C307.233 36.5858 308.422 36.3007 309.474 35.7629C310.52 35.23 311.389 34.6461 312.074 34.0084V10.6875H320.206V33.5426C320.197 35.9391 320.231 37.8105 320.313 39.1464C320.384 40.4892 320.555 41.5343 320.814 42.2985Z" fill="#003366"/>
<path d="M382.898 42.2654H374.835V23.0877C374.885 21.2741 374.605 19.7762 373.993 18.588C373.379 17.4038 372.102 16.787 370.157 16.7406C368.692 16.7704 367.299 17.0974 365.989 17.7189C364.677 18.3443 363.489 19.0833 362.43 19.9521C362.49 20.2628 362.506 20.6406 362.498 21.0855V42.2654H354.367V23.2224C354.418 21.4039 354.146 19.8851 353.532 18.6551C352.928 17.4291 351.668 16.7917 349.752 16.7406C348.287 16.7704 346.899 17.0974 345.589 17.7189C344.277 18.3443 343.09 19.0833 342.029 19.9521V42.2654H333.895V10.6633H340.744L341.553 14.1348C345.091 11.398 348.731 9.99142 352.468 9.92868C354.469 9.94096 356.189 10.3612 357.61 11.1962C359.033 12.0314 360.114 13.1854 360.871 14.6713C362.758 13.1017 364.695 11.9179 366.67 11.1248C368.654 10.3274 370.539 9.92868 372.324 9.92868C374.184 9.90775 375.909 10.2351 377.509 10.9067C379.101 11.5829 380.391 12.7153 381.374 14.3111C382.362 15.906 382.869 18.0758 382.898 20.8212L382.898 42.2654Z" fill="#003366"/>
<path d="M58.9022 14.4587C57.9233 12.8416 56.6516 11.7198 55.0936 11.031C53.5183 10.3534 51.8321 10 49.9879 10C48.2271 10.0411 46.3712 10.4511 44.474 11.2575C42.5571 12.0221 40.7709 13.1489 38.854 14.4587C37.8714 12.8416 36.6391 11.7198 35.0651 11.031C33.4862 10.3534 31.7747 10 29.9509 10C28.1949 10.0411 26.3335 10.4511 24.4079 11.2575C22.5157 12.0221 20.7227 13.1489 18.7897 14.4587C17.8448 12.8416 16.6014 11.7198 14.983 11.031C13.4306 10.3534 11.7332 10 9.89218 10C8.1683 10.0411 6.30133 10.4511 4.36158 11.2575C2.96645 11.8243 1.61016 12.5859 0.23291 13.4762V20.0684C1.27279 19.2228 2.42677 18.5166 3.68067 17.8808C4.97034 17.2411 6.33156 16.9145 7.7859 16.8908C9.70222 16.9275 10.924 17.5379 11.5532 18.7475C12.1712 19.9458 12.4253 21.4596 12.3889 23.2758V42.5422H20.2971V20.9986C20.2971 20.6794 20.2971 20.3783 20.2774 20.0684C21.3031 19.234 22.4639 18.5222 23.74 17.8808C25.0506 17.2411 26.3927 16.9145 27.8162 16.8908C29.7455 16.9275 31.0031 17.5379 31.6118 18.7475C32.207 19.9458 32.5 21.4596 32.421 23.2758V42.5422H40.3614V20.9986C40.3614 20.6794 40.3169 20.3783 40.3169 20.0684C41.3408 19.234 42.5053 18.5222 43.7844 17.8808C45.0562 17.2411 46.4248 16.9145 47.8767 16.8908C49.7739 16.9275 51.0247 17.5379 51.6495 18.7475C52.2447 19.9458 52.5303 21.4596 52.4519 23.2758V42.5422H60.3886V20.9986C60.3596 18.2391 59.8705 16.0428 58.9022 14.4587Z" fill="#FF3A30"/>
</g>
<defs>
<clipPath id="clip0_2871_17065">
<rect width="398" height="94" fill="white"/>
</clipPath>
</defs>
</svg>
